<?xml version="1.0" standalone="no"?><!DOCTYPE svg PUBLIC "-//W3C//DTD SVG 1.1//EN" "http://www.w3.org/Graphics/SVG/1.1/DTD/svg11.dtd"><svg class="icon" width="48px" height="48.00px" viewBox="0 0 1024 1024" version="1.1" xmlns="http://www.w3.org/2000/svg"><path d="M680.104137 805.78814H350.143147c-1.669012-0.517793-3.302209-1.300622-5.013177-1.517563-72.591295-9.214872-131.2206-58.117652-150.726863-126.045741-2.689249-9.364275-4.381797-18.993586-6.534834-28.498055v-34.68087c0.540306-1.6158 1.305739-3.195785 1.589195-4.853541 12.700253-74.252121 56.591903-122.478496 131.104967-144.902205 9.603729-2.89084 19.708877-4.243651 29.581735-6.307659h329.960991c1.666966 0.517793 3.298116 1.303692 5.007037 1.518586 72.1656 9.080819 130.868583 57.812707 150.451594 125.237329 2.797719 9.627265 4.571109 19.529799 6.817266 29.30749v34.68087c-0.540306 1.611707-1.351787 3.187599-1.579985 4.839215-9.69071 69.915349-60.454884 126.193097-131.089617 144.954393-9.727549 2.582825-19.730367 4.200672-29.607319 6.267751z" fill="#FF9900" /><path d="M351.299483 803.284109c-10.788717-2.232854-21.744233-3.936659-32.338523-6.79066-37.85619-10.205433-68.702732-30.091342-94.331435-60.737316 3.998057 1.333368 6.056949 1.846044 7.955183 2.677993 24.592095 10.791787 50.486858 16.119119 77.65666 16.122189 97.785094 0.008186 195.572234 0.209778 293.356305-0.055259 104.581893-0.278339 185.878454-79.945797 180.819228-177.080067-1.479701-28.435633-10.500145-54.915727-26.724664-79.172178-1.689479-2.524496-3.304256-5.091972-6.192026-9.558703 18.958794 9.730619 33.637098 20.914332 46.412052 34.264385 24.87862 25.994024 40.052205 56.180534 44.77988 90.814332 0.220011 1.603521 1.042749 3.13541 1.584078 4.703115v33.603329c-0.541329 1.559519-1.355881 3.089361-1.584078 4.686742-9.702989 67.743894-60.544935 122.270764-131.286092 140.449799-9.742898 2.50096-19.761066 4.070712-29.651321 6.072299H351.299483z" fill="#CC6633" /><path d="M561.135582 683.21857c-6.782473-3.251044-13.124925-5.522784-18.420535-8.961093-23.820522-15.46011-27.139104-15.565511-50.686402 0.287549-14.511505 9.770528-22.878057 9.783831-37.561478 0.019443-4.167926-2.772136-8.119935-5.802146-12.44852-8.375761-10.316973-6.136767-18.903535-6.181793-29.453822-0.332574-5.315052 2.948145-10.485819 6.083555-15.758915 9.087982-8.296967 4.727675-16.663518 4.054339-24.488741-0.546446-6.075369-3.570315-11.68411-7.730055-17.362436-11.765974-12.101619-8.607028-20.574594-9.163707-33.833573-2.032286-2.238994 1.202385-4.445242 2.447748-6.689353 3.64297-15.57779 8.292873-23.070438 7.873318-36.95875-2.568499-5.738701-4.315282-10.833743-9.242502-16.504905-13.627369-10.352789-8.003278-17.477047-8.42181-29.30135-2.25639-4.503571 2.349511-8.978489 4.804423-13.748119 6.705726-7.325849 2.917446-14.468526 1.698688-19.421328-3.475148-4.595668-4.803399-8.795317-10.236132-11.416004-15.969717-5.502317-12.035104-13.375635-22.385846-25.087375-30.629601-5.682419-4.000104-9.546424-8.623401-6.132674-15.202237 3.137457-6.048763 11.222599-9.232269 20.111037-7.667633 4.637624 0.816598 9.119705 2.323928 13.610995 3.662413 8.435113 2.517333 16.338107 1.570775 23.261797-3.071965 7.05672-4.730745 13.68365-9.923 20.515243-14.892175 13.561877-9.868765 21.673625-10.652618 37.533848-3.65525 20.418029 9.007141 26.622334 8.42488 44.24162-4.224208 3.841491-2.756787 7.445576-5.773494 11.42726-8.372691 9.628288-6.28617 17.433044-6.53381 27.840069-1.074472 4.054339 2.12643 7.983835 4.420683 11.998265 6.602372 11.500938 6.249331 19.61678 6.253424 30.783097-0.52598 5.586229-3.390213 10.660804-7.386224 15.994276-11.079336 10.825556-7.497765 18.652825-7.893784 30.274514-1.285272 4.614088 2.623757 8.852622 5.718235 13.398148 8.437159 11.163247 6.674003 19.570731 6.64842 30.584575-0.227174 4.688789-2.924609 8.973372-6.310729 13.608949-9.302877 12.515035-8.079002 20.330024-8.003278 32.83585 0.234338 4.810562 3.172249 9.336646 6.66991 14.294564 9.65694 10.377348 6.250354 17.984606 6.235005 28.496008 0.079818 4.353145-2.551102 8.355295-5.531993 12.657274-8.14961 12.412704-7.553023 22.138206-7.137561 33.754778 1.327228 5.424546 3.952009 10.634198 8.137331 16.286942 11.835559 8.641821 5.65479 16.526395 5.819542 25.708521 0.791016 5.780657-3.164063 11.223622-6.782473 17.067725-9.855462 8.017604-4.217045 16.331967-4.234441 23.610743 0.98749 6.439666 4.617158 12.251022 9.889231 18.126846 15.044648 14.090926 12.367679 22.278399 13.034874 38.546922 2.944052 2.350534-1.458211 4.679579-2.969635 7.178493-4.226255 9.057283-4.542456 16.449647-3.897773 23.440875 2.800789 5.067412 4.858658 9.4093 10.286274 13.771655 15.638166 9.426697 11.5695 21.766746 18.35709 38.737256 19.632129 15.838733 1.189082 20.313651 9.882068 11.248181 21.154809-4.282536 5.322216-9.688663 10.099009-15.198143 14.58109-9.852392 8.013511-21.401426 10.614755-34.304294 5.67628-16.406668-6.27696-30.277584-3.203972-42.502 7.516184a173.026752 173.026752 0 0 1-14.55346 11.454889c-8.834202 6.206352-15.57165 6.563486-25.468045 1.745761-4.819772-2.344395-9.508561-4.883217-14.332427-7.219426-9.992585-4.839215-19.459191-3.567245-27.979238 2.475378-6.490831 4.603855-12.32163 9.871835-18.732643 14.563694-9.990538 7.309476-16.946974 7.52744-27.883047 1.165546-4.583388-2.665713-8.863878-5.715165-13.517875-8.287757-11.911284-6.588045-18.965957-6.407943-30.432103 0.953721-4.632507 2.974751-8.478092 6.859221-13.229303 9.662057-5.256724 3.106758-11.142781 5.448082-17.539468 8.493442z" fill="#669900" /><path d="M154.181033 563.674916v-21.080107c0.621147-1.932002 1.327228-3.844561 1.851161-5.799077 7.587815-28.302603 25.582655-47.192835 54.69367-56.081272 3.100618-0.946558 6.141884-2.072195 9.210779-3.113921h580.842924c3.050476 1.036609 6.069229 2.168386 9.154498 3.099594 27.096125 8.175193 44.86072 25.299199 53.389977 51.336202 0.970094 2.963495 2.13564 5.869684 3.212158 8.80248v24.593118c-0.707105 1.824555-1.556449 3.617387-2.102894 5.489015-8.245801 28.29237-26.919093 46.746674-56.196906 55.255464-2.517333 0.730641-4.971222 1.656733-7.456833 2.492774H219.936643c-1.915629-0.682545-3.792373-1.49812-5.753027-2.026146-26.325575-7.084349-45.023426-22.408359-54.871725-47.155996-2.046612-5.14723-3.437286-10.535961-5.130858-15.812128z" fill="#FF3300" /><path d="M154.181033 547.553751c1.327228 3.244904 2.778276 6.449899 3.961219 9.742898 11.273764 31.385824 40.430828 51.832506 75.021647 51.848878 185.411827 0.091074 370.82263 0.092098 556.23548-0.002046 34.952047-0.016373 64.340377-20.894889 75.278497-52.696176 1.041726-3.022847 2.443655-5.932106 3.680833-8.893554v22.893406c-0.710175 1.832741-1.561565 3.62762-2.108011 5.504364-8.266267 28.367071-26.988678 46.867424-56.342216 55.397704-2.523473 0.733711-4.982478 1.661849-7.475252 2.497891H220.103442c-1.919722-0.683569-3.801583-1.500167-5.767354-2.029217-26.39209-7.101745-45.138036-22.468734-55.011918-47.278793-2.052752-5.158487-3.446495-10.561543-5.145183-15.852036 0.002047-7.043417 0.002047-14.08888 0.002046-21.133319z" fill="#CC3300" /><path d="M566.452681 568.898895c-6.782473-3.25309-13.125949-5.52483-18.420535-8.961093-23.820522-15.461133-27.139104-15.566534-50.686402 0.287549-14.512529 9.769504-22.878057 9.783831-37.561478 0.01842-4.167926-2.772136-8.119935-5.801123-12.44852-8.376785-10.317996-6.135744-18.903535-6.180769-29.454845-0.330528-5.315052 2.948145-10.485819 6.082532-15.758916 9.087983-8.29799 4.726651-16.663518 4.053316-24.48874-0.547469-6.075369-3.569292-11.68411-7.729032-17.361413-11.765975-12.101619-8.607028-20.574594-9.163707-33.834596-2.031263-2.238994 1.202385-4.445242 2.447748-6.689353 3.64297-15.57779 8.292873-23.070438 7.873318-36.95875-2.569521-5.739724-4.315282-10.833743-9.241478-16.505929-13.627369-10.351766-8.003278-17.477047-8.420787-29.30135-2.255367-4.503571 2.348488-8.978489 4.803399-13.748118 6.705726-7.325849 2.917446-14.468526 1.698688-19.421329-3.475148-4.595668-4.803399-8.795317-10.237155-11.41498-15.969717-5.502317-12.034081-13.375635-22.38687-25.087375-30.630624-5.681396-3.999081-9.546424-8.623401-6.132674-15.20326 3.137457-6.04774 11.222599-9.231245 20.111036-7.66661 4.637624 0.817622 9.119705 2.323928 13.61202 3.662412 8.43409 2.51631 16.338107 1.570775 23.261796-3.071965 7.05672-4.730745 13.68365-9.921977 20.515243-14.892175 13.561877-9.868765 21.673625-10.653641 37.533848-3.65525 20.419052 9.007141 26.622334 8.42488 44.24162-4.224208 3.842515-2.756787 7.445576-5.77247 11.42726-8.371668 9.628288-6.28617 17.432021-6.534833 27.840069-1.074471 4.053316 2.12643 7.983835 4.421706 11.997242 6.603395 11.500938 6.250354 19.617803 6.253424 30.783097-0.52598 5.586229-3.391237 10.660804-7.386224 15.994275-11.079336 10.825556-7.497765 18.652825-7.893784 30.274514-1.285272 4.614088 2.623757 8.853645 5.719258 13.398148 8.437159 11.163247 6.675026 19.569708 6.64842 30.583553-0.225127 4.688789-2.926656 8.973372-6.312776 13.608949-9.304923 12.515035-8.077979 20.330024-8.003278 32.835849 0.23536 4.809539 3.170203 9.336646 6.668886 14.294564 9.654894 10.377348 6.253424 17.984606 6.236028 28.494985 0.080841 4.354168-2.550079 8.355295-5.531993 12.657274-8.148587 12.413727-7.552 22.13923-7.138584 33.755802 1.327228 5.424546 3.953032 10.634198 8.137331 16.286941 11.83556 8.640798 5.65479 16.526395 5.818519 25.708522 0.792038 5.780657-3.164063 11.223622-6.782473 17.067724-9.856485 8.016581-4.216022 16.331967-4.233418 23.609721 0.987491 6.440689 4.617158 12.252045 9.889231 18.127869 15.045671 14.090926 12.367679 22.278399 13.035898 38.546921 2.943028 2.350534-1.457188 4.678556-2.969635 7.178493-4.224208 9.057283-4.544503 16.449647-3.898797 23.440875 2.800789 5.066389 4.856611 9.4093 10.284227 13.771655 15.637142 9.426697 11.568477 21.766746 18.358113 38.736233 19.633153 15.838733 1.189082 20.314675 9.881045 11.248182 21.153786-4.281513 5.322216-9.68764 10.099009-15.197121 14.580067-9.853415 8.014534-21.401426 10.616802-34.305317 5.678326-16.405645-6.27696-30.27656-3.204995-42.500976 7.51516a172.816974 172.816974 0 0 1-14.553461 11.45489c-8.834202 6.207375-15.572674 6.564509-25.468045 1.74576-4.819772-2.344395-9.508561-4.883217-14.332426-7.218402-9.993608-4.839215-19.459191-3.567245-27.979238 2.474355-6.491855 4.604878-12.322653 9.872858-18.733667 14.564717-9.989515 7.308453-16.945951 7.526417-27.882024 1.165546-4.583388-2.665713-8.863878-5.715165-13.517875-8.28878-11.911284-6.588045-18.96698-6.407943-30.432103 0.954744-4.632507 2.972705-8.478092 6.858198-13.229302 9.661034-5.254677 3.101641-11.140735 5.443989-17.537422 8.490372z" fill="#669900" /><path d="M488.775554 187.908694h51.386344c13.164834 2.140757 26.418696 3.866051 39.480177 6.484691 140.008754 28.065196 240.453421 132.916219 259.081686 270.204002 2.28095 16.814967-3.78214 30.305213-18.446117 39.35124-7.312546 4.510734-15.774265 7.630794-24.115234 10.17371-8.613168 2.628874-17.709337 3.794419-26.592658 5.601578H255.700171c-2.90926-0.650823-5.879917-1.118474-8.718569-1.985214-13.554714-4.136204-27.934213-6.78145-40.386825-12.990872-15.620769-7.78736-22.315238-21.946848-20.126387-39.246863 0.62524-4.947685 1.293459-9.895371 2.136664-14.81338 22.070668-128.622426 122.707716-229.6514 255.117398-255.839853 14.882965-2.942005 30.02892-4.65502 45.053102-6.939039z" fill="#FF9900" /><path d="M369.406886 543.79617h13.800308c17.788132 6.232958 35.57217 12.479219 53.364394 18.700921 17.651009 6.169513 35.31532 6.175653 52.966329 0.004093 17.790178-6.223748 35.570123-12.471033 53.354162-18.705014h13.800308c17.809621 6.198166 35.624359 12.386098 53.428863 18.599614 17.633612 6.152117 35.296901 6.386454 52.964282 0.194428 17.777899-6.228865 35.530215-12.526291 53.292764-18.794042h15.771195c16.111956 5.745864 32.275077 11.366885 48.321542 17.277502 14.630209 5.387707 29.386284 7.349385 45.088917 4.900613 4.637624-0.723477 9.992585 2.792603 15.019065 4.364401v18.958794h-37.4571c-18.067494-6.370081-36.115546-12.797467-54.210669-19.098987-17.384949-6.056949-34.733059-5.427616-52.004421 0.574075-17.817808 6.192026-35.646871 12.350283-53.470819 18.525936h-13.799284c-17.773805-6.248308-35.543517-12.511965-53.323462-18.745947-17.662265-6.191003-35.325553-6.046716-52.962236 0.098238-17.804505 6.202259-35.600823 12.431124-53.400211 18.648732h-13.800307c-17.798365-6.218632-35.592636-12.444427-53.392024-18.655895-17.641799-6.155187-35.30918-6.264681-52.967352-0.090051-17.786085 6.221702-35.551704 12.495592-53.326533 18.745946h-15.771195c-14.558577-5.186116-28.919656-10.991332-43.738154-15.366989-12.000312-3.540639-24.602328-5.152347-36.82572-8.054443-4.204765-0.9967-8.072863-3.306302-12.093432-5.017271V543.798217h21.684881c17.764596 6.263657 35.517935 12.554944 53.29481 18.785855 17.667382 6.196119 35.328623 5.974062 52.966329-0.183172 17.802458-6.212492 35.615149-12.404518 53.42477-18.60473z" fill="#FFFFFF" /><path d="M701.76446 520.865925c6.789637-31.894408 8.659217-64.207347 7.031137-96.632851-2.057869-41.044812-10.989285-80.488149-32.19833-116.400057-32.249495-54.606689-81.929987-86.040608-142.408407-101.657284-24.056905-6.210445-49.034786-8.939603-70.701249-12.747325l34.264385-5.089925h50.108235c12.837376 2.14485 25.761734 3.874237 38.496779 6.497994 136.524396 28.125571 234.472196 133.200698 252.635881 270.784216 2.224668 16.84976-3.687996 30.370705-17.986653 39.435151-7.130398 4.520967-15.382339 7.647167-23.514553 10.196223-8.399297 2.63399-17.269315 3.802606-25.933649 5.613858h-69.793576z" fill="#CC6600" /><path d="M590.144266 307.328527l-2.539846-8.846482c2.684132-0.497327 6.161327-2.267647 7.907087-1.25969 5.664 3.266393 2.100848 6.864338-0.748037 10.106172h-4.619204zM343.908142 299.927977c3.004427-1.714038 5.553483-5.888104 9.685593-1.914606 4.13211 3.974521-0.208754 6.426363-1.991353 9.31618h-7.695263l0.001023-7.401574zM687.100482 307.328527c-1.782599-2.889817-6.122441-5.341658-1.991354-9.316179 4.13211-3.973498 6.681166 0.200568 9.685593 1.914606v7.40055l-7.694239 0.001023zM448.558597 218.526015c0.605797 0.73985 1.685385 1.455141 1.729388 2.225691 0.143263 2.494821 0.301875 5.132904-0.463558 7.432273-0.191358 0.574075-5.41943 0.574075-5.609765 0-0.766456-2.300392-0.606821-4.937452-0.464581-7.432273 0.045025-0.769526 1.124614-1.485841 1.730411-2.225691h3.078105zM496.266156 218.526015c0.606821 0.73985 1.686409 1.455141 1.73041 2.225691 0.143263 2.494821 0.301875 5.132904-0.462534 7.432273-0.192382 0.574075-5.420453 0.574075-5.610788 0-0.766456-2.300392-0.606821-4.937452-0.463558-7.432273 0.044002-0.769526 1.124614-1.485841 1.729388-2.225691h3.077082zM545.514813 218.526015c0.604774 0.73985 1.685385 1.455141 1.728364 2.225691 0.143263 2.494821 0.302899 5.132904-0.462534 7.432273-0.191358 0.574075-5.420453 0.574075-5.609765 0-0.766456-2.300392-0.607844-4.937452-0.464581-7.432273 0.045025-0.769526 1.124614-1.485841 1.730411-2.225691h3.078105zM594.762447 218.526015c0.604774 0.73985 1.684362 1.455141 1.728364 2.225691 0.143263 2.494821 0.302899 5.132904-0.463557 7.432273-0.191358 0.574075-5.41943 0.574075-5.609765 0-0.765433-2.300392-0.606821-4.937452-0.463558-7.432273 0.045025-0.769526 1.124614-1.485841 1.729388-2.225691h3.079128zM397.772934 307.328527c-0.605797-0.740874-1.685385-1.456165-1.730411-2.226714-0.143263-2.494821-0.301875-5.131881 0.464581-7.432273 0.190335-0.574075 5.41943-0.574075 5.609765 0 0.765433 2.300392 0.605797 4.937452 0.463557 7.432273-0.044002 0.769526-1.12359 1.485841-1.729387 2.226714h-3.078105zM445.480492 307.328527c-0.605797-0.740874-1.685385-1.456165-1.730411-2.226714-0.143263-2.494821-0.301875-5.131881 0.464581-7.432273 0.191358-0.574075 5.41943-0.574075 5.609765 0 0.765433 2.300392 0.605797 4.937452 0.463558 7.432273-0.044002 0.769526-1.12359 1.485841-1.729388 2.226714h-3.078105zM494.727103 307.328527c-0.604774-0.740874-1.685385-1.456165-1.729387-2.226714-0.143263-2.494821-0.301875-5.131881 0.463557-7.432273 0.190335-0.574075 5.41943-0.574075 5.610788 0 0.76441 2.300392 0.605797 4.937452 0.462535 7.432273-0.045025 0.769526-1.124614 1.485841-1.729388 2.226714h-3.078105zM543.97576 307.328527c-0.606821-0.740874-1.685385-1.456165-1.73041-2.226714-0.14224-2.494821-0.301875-5.131881 0.464581-7.432273 0.190335-0.574075 5.41943-0.574075 5.608741 0 0.766456 2.300392 0.606821 4.937452 0.464581 7.432273-0.045025 0.769526-1.124614 1.485841-1.729388 2.226714h-3.078105zM639.3919 307.328527c-0.605797-0.740874-1.685385-1.456165-1.729387-2.226714-0.143263-2.494821-0.302899-5.131881 0.463558-7.432273 0.190335-0.574075 5.41943-0.574075 5.608741 0 0.766456 2.300392 0.607844 4.937452 0.464581 7.432273-0.045025 0.769526-1.124614 1.485841-1.729388 2.226714h-3.078105zM404.85319 262.424828c-2.986007 2.526543-4.983501 5.417383-6.483669 5.196349-2.13564-0.313132-4.76963-2.631944-5.485944-4.65195-0.385786-1.089821 2.715855-4.66116 4.364401-4.737908 2.082428-0.098237 4.287653 2.223644 7.605212 4.193509zM454.132546 262.171048c-2.937912 2.629897-4.817726 5.548366-6.347568 5.387707-2.13871-0.227174-4.013407-2.749624-6.001691-4.289699 1.503237-1.76725 2.88163-4.826935 4.542456-4.977362 2.065032-0.186242 4.365424 2.032286 7.806803 3.879354zM501.805312 263.386736c-3.299139 1.988284-5.489014 4.325515-7.573489 4.241604-1.647523-0.064468-4.771677-3.619434-4.39203-4.714372 0.700965-2.026146 3.320629-4.362354 5.456268-4.692882 1.494027-0.231267 3.50994 2.653433 6.509251 5.16565zM551.059086 263.312034c-3.276626 2.02103-5.436826 4.378727-7.524371 4.318353-1.645476-0.047072-4.812609-3.568269-4.446265-4.662183 0.679475-2.034333 3.26844-4.396123 5.39794-4.748141 1.494027-0.24764 3.543709 2.612501 6.572696 5.091971zM592.577688 256.102842c2.677992 2.850931 5.696746 4.718465 5.496178 6.17463-0.283456 2.055822-2.950192 3.807722-4.596692 5.691629-1.817392-1.478677-4.996804-2.868327-5.108344-4.457522-0.141216-2.00261 2.224668-4.167926 4.208858-7.408737zM648.040884 263.62005c-3.416819 1.877767-5.694699 4.120854-7.766894 3.956101-1.656733-0.130983-3.061732-3.191692-4.579295-4.951778 1.973958-1.558495 3.826142-4.101411 5.961782-4.345982 1.526773-0.172939 3.434216 2.738367 6.384407 5.341659z" fill="#FFFFFF" /></svg>