<?xml version="1.0" standalone="no"?><!DOCTYPE svg PUBLIC "-//W3C//DTD SVG 1.1//EN" "http://www.w3.org/Graphics/SVG/1.1/DTD/svg11.dtd"><svg class="icon" width="48px" height="48.00px" viewBox="0 0 1024 1024" version="1.1" xmlns="http://www.w3.org/2000/svg"><path fill="#cdcdcd" d="M956.683 422.957C945.998 194.605 768.98 66.783 489.74 66.783c-241.04 0-411.826 132.363-422.422 356.174h889.366z m-934.422 22.26c0-264.147 195.806-422.956 467.478-422.956 310.54 0 512 153.021 512 422.956a22.26 22.26 0 0 1-22.26 22.261H44.521a22.26 22.26 0 0 1-22.261-22.26z m967.19 91.404l-56.097-28.05A154.223 154.223 0 0 0 765.24 528.34a81.653 81.653 0 0 1-104.537 0.312l-0.757-0.579a126.976 126.976 0 0 0-162.237 0.223c-30.453 25.377-74.663 25.377-105.072 0l-1.024-0.89a123.459 123.459 0 0 0-159.388 1.068 108.099 108.099 0 0 1-117.67 15.137l-60.283-29.384a22.26 22.26 0 1 0-19.5 40.07l60.282 29.34a152.62 152.62 0 0 0 166.11-21.371 78.937 78.937 0 0 1 101.955-0.668l1.024 0.89a126.53 126.53 0 0 0 162.015 0.045 82.454 82.454 0 0 1 105.427-0.178l0.713 0.579a126.175 126.175 0 0 0 161.57-0.445 109.702 109.702 0 0 1 119.54-14.114l56.097 28.049a22.26 22.26 0 0 0 19.946-39.802zM89.043 690.087a22.26 22.26 0 1 0 0 44.522h845.914a22.26 22.26 0 1 0 0-44.522H89.043z m0-44.522h845.914a66.783 66.783 0 0 1 0 133.565H89.043a66.783 66.783 0 0 1 0-133.565z m89.044 311.652h667.826a111.304 111.304 0 0 0 109.078-89.043H69.01a111.304 111.304 0 0 0 109.078 89.043zM44.522 823.652h934.956a22.26 22.26 0 0 1 22.261 22.261 155.826 155.826 0 0 1-155.826 155.826H178.087A155.826 155.826 0 0 1 22.261 845.913a22.26 22.26 0 0 1 22.26-22.26zM489.74 333.913h44.52a22.26 22.26 0 1 0 0-44.522h-44.52a22.26 22.26 0 1 0 0 44.522z m0-133.565h44.52a22.26 22.26 0 1 0 0-44.522h-44.52a22.26 22.26 0 1 0 0 44.522zM222.608 333.913h44.521a22.26 22.26 0 0 0 0-44.522H222.61a22.26 22.26 0 0 0 0 44.522z m534.26 0h44.522a22.26 22.26 0 1 0 0-44.522H756.87a22.26 22.26 0 1 0 0 44.522z" /></svg>