<?xml version="1.0" standalone="no"?><!DOCTYPE svg PUBLIC "-//W3C//DTD SVG 1.1//EN" "http://www.w3.org/Graphics/SVG/1.1/DTD/svg11.dtd"><svg class="icon" width="48px" height="48.00px" viewBox="0 0 1024 1024" version="1.1" xmlns="http://www.w3.org/2000/svg"><path d="M220.8 470.4c-11.733333 0-23.466667-6.4-28.8-17.066667-4.266667-7.466667-5.333333-17.066667-2.133333-25.6 2.133333-8.533333 8.533333-16 16-20.266666 16-8.533333 36.266667-3.2 44.8 13.866666 4.266667 7.466667 5.333333 17.066667 2.133333 25.6-2.133333 8.533333-8.533333 16-16 20.266667-5.333333 2.133333-10.666667 3.2-16 3.2z m0-55.466667c-3.2 0-7.466667 1.066667-10.666667 3.2-5.333333 3.2-9.6 7.466667-10.666666 13.866667-2.133333 5.333333-1.066667 11.733333 2.133333 17.066667 6.4 10.666667 19.2 14.933333 30.933333 9.6 5.333333-3.2 9.6-7.466667 10.666667-13.866667 2.133333-5.333333 1.066667-11.733333-2.133333-17.066667-5.333333-8.533333-12.8-12.8-20.266667-12.8zM726.4 136.533333c-2.133333 0-3.2-1.066667-4.266667-3.2-1.066667-2.133333 0-5.333333 2.133334-7.466666l37.333333-20.266667c2.133333-1.066667 5.333333 0 7.466667 2.133333 1.066667 2.133333 0 5.333333-2.133334 7.466667l-37.333333 20.266667c-1.066667 1.066667-2.133333 1.066667-3.2 1.066666z" fill="#185A96" /><path d="M755.2 145.066667c-2.133333 0-3.2-1.066667-4.266667-3.2l-20.266666-37.333334c-1.066667-2.133333 0-5.333333 2.133333-7.466666 2.133333-1.066667 5.333333 0 7.466667 2.133333l20.266666 37.333333c1.066667 2.133333 0 5.333333-2.133333 7.466667-1.066667 1.066667-2.133333 1.066667-3.2 1.066667z" fill="#185A96" /><path d="M906.666667 279.466667c-3.2 0-5.333333 0-8.533334-1.066667-7.466667-2.133333-12.8-7.466667-17.066666-13.866667s-4.266667-13.866667-2.133334-21.333333 7.466667-12.8 13.866667-17.066667c13.866667-7.466667 30.933333-2.133333 38.4 11.733334 3.2 6.4 4.266667 13.866667 2.133333 21.333333s-7.466667 12.8-13.866666 17.066667c-3.2 2.133333-7.466667 3.2-12.8 3.2z m0-45.866667c-3.2 0-5.333333 1.066667-8.533334 2.133333-4.266667 2.133333-7.466667 6.4-8.533333 10.666667s-1.066667 9.6 1.066667 13.866667 6.4 7.466667 10.666666 8.533333c4.266667 1.066667 9.6 1.066667 13.866667-1.066667s7.466667-6.4 8.533333-10.666666c1.066667-4.266667 1.066667-9.6-1.066666-13.866667-3.2-6.4-9.6-9.6-16-9.6z" fill="#81B73B" /><path d="M296.533333 332.8c-2.133333 0-3.2-1.066667-4.266666-3.2-1.066667-2.133333 0-5.333333 2.133333-7.466667l37.333333-20.266666c2.133333-1.066667 5.333333 0 7.466667 2.133333 1.066667 2.133333 0 5.333333-2.133333 7.466667l-37.333334 20.266666c-1.066667 1.066667-2.133333 1.066667-3.2 1.066667z" fill="#F4C94E" /><path d="M326.4 341.333333c-2.133333 0-3.2-1.066667-4.266667-3.2l-20.266666-37.333333c-1.066667-2.133333 0-5.333333 2.133333-7.466667 2.133333-1.066667 5.333333 0 7.466667 2.133334l20.266666 37.333333c1.066667 2.133333 0 5.333333-2.133333 7.466667-2.133333 1.066667-3.2 1.066667-3.2 1.066666z" fill="#F4C94E" /><path d="M325.333333 583.466667c-3.2 0-5.333333 0-8.533333-1.066667-7.466667-2.133333-12.8-7.466667-17.066667-13.866667-3.2-6.4-4.266667-13.866667-2.133333-21.333333s7.466667-12.8 13.866667-17.066667c6.4-3.2 13.866667-4.266667 21.333333-2.133333s12.8 7.466667 17.066667 13.866667c7.466667 13.866667 2.133333 30.933333-11.733334 38.4-3.2 2.133333-8.533333 3.2-12.8 3.2z m0-45.866667c-3.2 0-5.333333 1.066667-8.533333 2.133333-8.533333 4.266667-11.733333 14.933333-7.466667 23.466667 2.133333 4.266667 6.4 7.466667 10.666667 8.533333 4.266667 1.066667 9.6 1.066667 13.866667-1.066666 8.533333-4.266667 11.733333-14.933333 7.466666-23.466667-2.133333-4.266667-6.4-7.466667-10.666666-8.533333-2.133333-1.066667-4.266667-1.066667-5.333334-1.066667z" fill="#D190C5" /><path d="M350.933333 558.933333h-70.4c-6.4 0-10.666667-5.333333-10.666666-10.666666V133.333333c0-6.4 5.333333-10.666667 10.666666-10.666666h70.4c6.4 0 10.666667 5.333333 10.666667 10.666666v414.933334c0 6.4-4.266667 10.666667-10.666667 10.666666zM564.266667 653.866667h-70.4c-6.4 0-10.666667-5.333333-10.666667-10.666667V133.333333c0-6.4 5.333333-10.666667 10.666667-10.666666h70.4c6.4 0 10.666667 5.333333 10.666666 10.666666v509.866667c0 5.333333-4.266667 10.666667-10.666666 10.666667zM457.6 285.866667v297.6c0 6.4-5.333333 10.666667-10.666667 10.666666h-70.4c-6.4 0-10.666667-5.333333-10.666666-10.666666V204.8c0-6.4 5.333333-10.666667 10.666666-10.666667h70.4c6.4 0 10.666667 5.333333 10.666667 10.666667M457.6 204.8v81.066667M692.266667 644.266667h-70.4c-6.4 0-10.666667-5.333333-10.666667-10.666667V256c0-6.4 5.333333-10.666667 10.666667-10.666667h70.4c6.4 0 10.666667 5.333333 10.666666 10.666667v377.6c0 6.4-4.266667 10.666667-10.666666 10.666667zM820.266667 454.4h-70.4c-6.4 0-10.666667-5.333333-10.666667-10.666667V199.466667c0-6.4 5.333333-10.666667 10.666667-10.666667h70.4c6.4 0 10.666667 5.333333 10.666666 10.666667v244.266666c0 5.333333-4.266667 10.666667-10.666666 10.666667z" fill="#FFCE00" /><path d="M329.6 564.266667h-70.4c-8.533333 0-16-7.466667-16-16V214.4c0-3.2 2.133333-5.333333 5.333333-5.333333s5.333333 2.133333 5.333334 5.333333v333.866667c0 3.2 2.133333 5.333333 5.333333 5.333333h70.4c3.2 0 5.333333-2.133333 5.333333-5.333333V133.333333c0-3.2-2.133333-5.333333-5.333333-5.333333h-70.4c-3.2 0-5.333333 2.133333-5.333333 5.333333s-2.133333 5.333333-5.333334 5.333334-5.333333-2.133333-5.333333-5.333334c0-8.533333 7.466667-16 16-16h70.4c8.533333 0 16 7.466667 16 16v414.933334c0 9.6-7.466667 16-16 16zM670.933333 686.933333h-70.4c-8.533333 0-16-7.466667-16-16V256c0-8.533333 7.466667-16 16-16h70.4c8.533333 0 16 7.466667 16 16 0 3.2-2.133333 5.333333-5.333333 5.333333s-5.333333-2.133333-5.333333-5.333333-2.133333-5.333333-5.333334-5.333333h-70.4c-3.2 0-5.333333 2.133333-5.333333 5.333333v414.933333c0 3.2 2.133333 5.333333 5.333333 5.333334h70.4c3.2 0 5.333333-2.133333 5.333334-5.333334V269.866667c0-3.2 2.133333-5.333333 5.333333-5.333334s5.333333 2.133333 5.333333 5.333334v401.066666c0 9.6-7.466667 16-16 16zM798.933333 633.6h-70.4c-8.533333 0-16-7.466667-16-16V202.666667c0-8.533333 7.466667-16 16-16h70.4c8.533333 0 16 7.466667 16 16v414.933333c0 9.6-7.466667 16-16 16z m-70.4-437.333333c-3.2 0-5.333333 2.133333-5.333333 5.333333v414.933333c0 3.2 2.133333 5.333333 5.333333 5.333334h70.4c3.2 0 5.333333-2.133333 5.333334-5.333334V202.666667c0-3.2-2.133333-5.333333-5.333334-5.333334h-70.4zM446.933333 649.6h-70.4c-8.533333 0-16-7.466667-16-16V208c0-8.533333 7.466667-16 16-16h70.4c8.533333 0 16 7.466667 16 16v425.6c0 9.6-7.466667 16-16 16z m-70.4-448c-3.2 0-5.333333 2.133333-5.333333 5.333333v425.6c0 3.2 2.133333 5.333333 5.333333 5.333334h70.4c3.2 0 5.333333-2.133333 5.333334-5.333334V208c0-3.2-2.133333-5.333333-5.333334-5.333333h-70.4z"  /><path d="M546.133333 670.933333h-70.4c-8.533333 0-16-7.466667-16-16V133.333333c0-8.533333 7.466667-16 16-16h70.4c8.533333 0 16 7.466667 16 16v521.6c1.066667 9.6-6.4 16-16 16z m-70.4-544c-3.2 0-5.333333 2.133333-5.333333 5.333334v521.6c0 3.2 2.133333 5.333333 5.333333 5.333333h70.4c3.2 0 5.333333-2.133333 5.333334-5.333333V133.333333c0-3.2-2.133333-5.333333-5.333334-5.333333h-70.4z"  /><path d="M791.466667 419.2H677.333333c-7.466667 102.4-85.333333 183.466667-180.266666 183.466667s-172.8-81.066667-180.266667-183.466667H202.666667c-24.533333 0-42.666667 24.533333-38.4 51.2l69.333333 384c3.2 20.266667 19.2 34.133333 38.4 34.133333h448c18.133333 0 34.133333-13.866667 38.4-34.133333l69.333333-384c6.4-26.666667-11.733333-51.2-36.266666-51.2z" fill="#FF2400" /><path d="M710.4 934.4c-6.4 0-10.666667-4.266667-10.666667-10.666667s4.266667-10.666667 10.666667-10.666666c12.8 0 24.533333-10.666667 27.733333-25.6l69.333334-384c2.133333-10.666667-1.066667-20.266667-7.466667-28.8-5.333333-6.4-12.8-9.6-20.266667-9.6h-103.466666c-11.733333 103.466667-93.866667 183.466667-189.866667 183.466666s-178.133333-80-189.866667-183.466666H192c-7.466667 0-14.933333 3.2-20.266667 9.6-6.4 7.466667-8.533333 18.133333-7.466666 28.8 1.066667 5.333333-3.2 11.733333-8.533334 12.8-5.333333 1.066667-11.733333-3.2-12.8-8.533334-3.2-17.066667 1.066667-33.066667 11.733334-45.866666 9.6-10.666667 22.4-18.133333 36.266666-18.133334h123.733334l1.066666 9.6c6.4 97.066667 81.066667 173.866667 169.6 173.866667s163.2-76.8 169.6-173.866667l1.066667-9.6h123.733333c13.866667 0 27.733333 6.4 36.266667 18.133334 10.666667 12.8 14.933333 29.866667 11.733333 45.866666l-69.333333 384c-4.266667 24.533333-24.533333 42.666667-48 42.666667zM654.933333 934.4H262.4c-23.466667 0-43.733333-18.133333-48-42.666667l-42.666667-235.733333c-1.066667-5.333333 3.2-11.733333 8.533334-12.8 5.333333-1.066667 11.733333 3.2 12.8 8.533333l42.666666 235.733334c3.2 14.933333 13.866667 25.6 27.733334 25.6h392.533333c6.4 0 10.666667 4.266667 10.666667 10.666666s-6.4 10.666667-11.733334 10.666667z"  /><path d="M358.4 749.866667c-3.2 0-6.4-2.133333-7.466667-5.333334-1.066667-4.266667 1.066667-8.533333 5.333334-10.666666l58.666666-21.333334-56.533333-29.866666c-4.266667-2.133333-5.333333-6.4-3.2-10.666667s6.4-5.333333 10.666667-3.2l62.933333 33.066667c4.266667 2.133333 7.466667 7.466667 6.4 11.733333 0 5.333333-3.2 9.6-8.533333 10.666667l-66.133334 23.466666c0 1.066667-1.066667 2.133333-2.133333 2.133334zM632.533333 763.733333c-1.066667 0-2.133333 0-3.2-1.066666l-64-30.933334c-4.266667-2.133333-7.466667-6.4-7.466666-11.733333s3.2-9.6 7.466666-11.733333l66.133334-26.666667c4.266667-2.133333 8.533333 0 10.666666 4.266667 2.133333 4.266667 0 8.533333-4.266666 10.666666l-58.666667 23.466667 56.533333 26.666667c4.266667 2.133333 5.333333 6.4 4.266667 10.666666-2.133333 4.266667-5.333333 6.4-7.466667 6.4zM395.733333 844.8c-3.2 0-6.4-2.133333-7.466666-5.333333-1.066667-4.266667 1.066667-8.533333 5.333333-9.6l55.466667-18.133334c8.533333-2.133333 17.066667-1.066667 24.533333 4.266667l14.933333 10.666667c2.133333 1.066667 5.333333 2.133333 7.466667 0l19.2-11.733334c6.4-4.266667 14.933333-5.333333 21.333333-2.133333l45.866667 18.133333c4.266667 2.133333 6.4 6.4 4.266667 10.666667-2.133333 4.266667-6.4 6.4-10.666667 4.266667l-45.866667-18.133334c-2.133333-1.066667-5.333333-1.066667-6.4 1.066667l-19.2 11.733333c-7.466667 5.333333-18.133333 4.266667-25.6-1.066666l-14.933333-10.666667c-3.2-2.133333-6.4-2.133333-9.6-1.066667l-55.466667 18.133334c-2.133333-1.066667-3.2-1.066667-3.2-1.066667zM164.266667 600.533333c-5.333333 0-9.6-3.2-10.666667-8.533333l-8.533333-37.333333c-1.066667-5.333333 2.133333-11.733333 8.533333-12.8 5.333333-1.066667 11.733333 2.133333 12.8 8.533333l8.533333 38.4c1.066667 5.333333-2.133333 11.733333-8.533333 12.8-1.066667-1.066667-1.066667-1.066667-2.133333-1.066667zM248.533333 188.8c-3.2 0-5.333333-2.133333-5.333333-5.333333v-22.4c0-3.2 2.133333-5.333333 5.333333-5.333334s5.333333 2.133333 5.333334 5.333334v22.4c0 3.2-3.2 5.333333-5.333334 5.333333z"  /><path d="M763.733333 576h-2.133333c-3.2-1.066667-4.266667-4.266667-3.2-6.4 13.866667-39.466667 8.533333-55.466667 3.2-62.933333-7.466667-8.533333-21.333333-6.4-21.333333-5.333334-3.2 1.066667-5.333333-1.066667-6.4-4.266666-1.066667-3.2 1.066667-5.333333 4.266666-6.4 1.066667 0 20.266667-4.266667 32 9.6 11.733333 12.8 11.733333 38.4-1.066666 73.6-1.066667 1.066667-3.2 2.133333-5.333334 2.133333z" fill="#FFFFFF" /></svg>