<?xml version="1.0" standalone="no"?><!DOCTYPE svg PUBLIC "-//W3C//DTD SVG 1.1//EN" "http://www.w3.org/Graphics/SVG/1.1/DTD/svg11.dtd"><svg class="icon" width="48px" height="48.00px" viewBox="0 0 1024 1024" version="1.1" xmlns="http://www.w3.org/2000/svg"><path fill="#cdcdcd" d="M512 203.1c99.1 0 183.9 62 218 149.1h46.2C740.3 240.5 635.5 159.5 512 159.5s-228.3 81-264.2 192.7H294c34.1-87.2 118.9-149.1 218-149.1z m387.6 162.5H124.4c-15 0-27.2 12.2-27.2 27.2v93.8c0 15 12.2 27.2 27.2 27.2h22.8l59.9 307.5s3.4 43.2 36.4 43.2h539.2c33 0 36.4-43.2 36.4-43.2L879 513.9h20.6c15 0 27.2-12.2 27.2-27.2v-93.8c0-15.1-12.2-27.3-27.2-27.3zM396.7 762.4c0 16-13 29.1-29 29.1s-29-13-29-29.1v-236c0-16 13-29 29-29s29 13 29 29v236z m144.3 0c0 16-13 29.1-29 29.1-16.1 0-29-13-29-29.1v-236c0-16 13-29 29-29s29 13 29 29v236z m144.4 0c0 16-13 29.1-29 29.1s-29-13-29-29.1v-236c0-16 13-29 29-29 16.1 0 29 13 29 29v236z"  /></svg>