<?xml version="1.0" standalone="no"?><!DOCTYPE svg PUBLIC "-//W3C//DTD SVG 1.1//EN" "http://www.w3.org/Graphics/SVG/1.1/DTD/svg11.dtd"><svg class="icon" width="48px" height="48.00px" viewBox="0 0 1024 1024" version="1.1" xmlns="http://www.w3.org/2000/svg"><path fill="#cdcdcd" d="M193.485 32.7h666.21c22.126 0 39.383 17.248 39.383 36.949 2.396 21.987-14.803 36.721-36.869 36.721H193.485c-22.186 0-39.285-17.099-39.285-36.721 0.001-19.702 17.099-36.949 39.285-36.949z m720.357 781.678c0 22.234-26.934 49.298-51.633 49.298H190.972c-24.699 0-51.654-27.063-51.654-49.298V561.306h68.753v240.941h639.354V561.306h66.378v253.072h0.039z m-34.416-324.506c-63.942 0-118.011-51.416-118.011-112.964 0 63.993-51.712 112.994-118.03 112.994-63.983 0-117.952-51.446-117.952-112.994 0 63.993-51.733 112.994-118.071 112.994-63.904 0-117.932-51.446-117.932-112.994 0 63.993-51.713 112.994-118.13 112.994-63.923 0-117.971-51.446-117.971-112.994l81.221-208.979h771.93l83.477 208.979c5.105 63.993-46.667 112.994-110.531 112.994v-0.03z m0 0"  /></svg>