<?xml version="1.0" standalone="no"?><!DOCTYPE svg PUBLIC "-//W3C//DTD SVG 1.1//EN" "http://www.w3.org/Graphics/SVG/1.1/DTD/svg11.dtd"><svg t="1541485532943" class="icon" style="" viewBox="0 0 1024 1024" version="1.1" xmlns="http://www.w3.org/2000/svg" p-id="9984" xmlns:xlink="http://www.w3.org/1999/xlink" width="32" height="32"><defs><style type="text/css"></style></defs><path d="M820.225293 864.365899H201.399596c-12.792242 0-25.584485-6.396121-33.578667-15.99095-7.995475-11.192889-11.192889-23.985131-7.995474-36.777373C191.806061 648.497131 324.525253 526.969535 484.428283 514.177293c6.396121-1.598061 11.192889-1.598061 19.188363-1.598061v15.99095c-6.396121 0-11.192889 0-17.58901 1.59806-153.508202 11.192889-281.430626 127.922424-311.811878 284.628041-1.599354 7.995475 0 17.58901 6.396121 23.985131 4.796768 6.396121 12.792242 9.593535 20.786424 9.593535h618.825697c7.995475 0 15.989657-3.197414 20.787717-9.593535 4.798061-6.396121 7.995475-14.391596 6.396121-23.985131-19.188364-102.337939-81.550222-190.284283-169.496565-239.855192-9.594828-6.396121-20.787717-11.192889-30.382546-15.99095l6.396121-14.390303c11.192889 4.796768 22.385778 11.192889 31.980607 15.989657 92.743111 52.768323 156.704323 143.913374 177.49204 251.048081 3.198707 12.792242 0 25.584485-9.593535 36.777373-7.992889 9.594828-20.786424 15.990949-33.578667 15.99095zM508.414707 528.568889h-3.198707v-15.99095h4.798061l-1.599354 15.99095z" fill="#1afa29" p-id="9985"></path><path d="M514.810828 528.568889c-100.738586 0-183.888162-83.149576-183.888161-183.888162s83.149576-183.888162 183.888161-183.888161S698.69899 243.942141 698.69899 344.680727s-83.149576 183.888162-183.888162 183.888162z m0-351.786667c-92.743111 0-167.898505 75.155394-167.898505 167.898505s75.154101 167.898505 167.898505 167.898505 167.898505-75.154101 167.898505-167.898505S607.555232 176.782222 514.810828 176.782222z" fill="#1afa29" p-id="9986"></path></svg>