<?xml version="1.0" standalone="no"?><!DOCTYPE svg PUBLIC "-//W3C//DTD SVG 1.1//EN" "http://www.w3.org/Graphics/SVG/1.1/DTD/svg11.dtd"><svg t="1541472957384" class="icon" style="" viewBox="0 0 1026 1024" version="1.1" xmlns="http://www.w3.org/2000/svg" p-id="4907" xmlns:xlink="http://www.w3.org/1999/xlink" width="48.09375" height="48"><defs><style type="text/css"></style></defs><path d="M942.723064 788.941968c10.005746-15.005619 17.508555-28.76227 26.264333-45.011857 2.497937-3.750905 3.746905-7.502809 4.999873-11.248714 6.254841-12.502683 11.249714-25.016365 16.259587-37.514048 2.497937-4.999873 3.746905-10.004746 6.249841-16.249587 3.750905-12.507682 7.502809-23.761397 11.248715-36.264079 1.253968-6.249841 3.755905-11.249714 5.009873-17.503556 2.492937-12.502683 4.995873-26.254333 7.497809-38.757016 1.253968-6.253841 2.502936-11.249714 2.502937-16.254587 2.496937-18.756524 3.745905-37.509048 3.745904-57.51454C1026.496937 230.057159 796.444778 0 513.872952 0 230.052159 0 0 230.057159 0 512.623984c0 18.757524 1.248968 38.758016 3.750905 57.51454 1.249968 6.253841 1.249968 11.249714 2.497936 17.503555 1.253968 11.253714 3.751905 25.005365 6.253842 37.509048 1.248968 6.252841 2.502936 12.501683 4.999873 17.502556 3.751905 12.502683 7.502809 25.010365 11.254714 36.265079 1.248968 4.994873 3.745905 9.999746 6.248841 16.249587 5.004873 12.496683 10.005746 26.259333 16.259587 37.513048 1.248968 3.745905 3.745905 7.49781 4.999873 11.249714a419.879339 419.879339 0 0 0 26.259334 45.010857l1.249968 1.248969c91.270683 141.278413 248.808683 233.809063 428.854111 233.809063s337.583429-93.774619 428.850111-233.809063l1.243969-1.248969z m-430.09908-543.88419c103.774365 0 188.797206 85.022841 188.797206 188.797206-1.242968 103.775365-85.017841 187.549238-188.797206 187.549238s-188.797206-85.022841-188.797206-188.803206c0-102.520397 85.022841-187.543238 188.797206-187.543238zM201.299889 832.704857c53.763635-122.526889 175.041556-203.802825 311.324095-203.802825 136.28354 0 257.56146 81.275936 311.324095 203.802825-81.271936 78.774-191.295143 126.276794-311.324095 126.276794-121.276921 0-231.306127-47.502794-311.324095-126.276794z" p-id="4908"></path></svg>