<?xml version="1.0" standalone="no"?><!DOCTYPE svg PUBLIC "-//W3C//DTD SVG 1.1//EN" "http://www.w3.org/Graphics/SVG/1.1/DTD/svg11.dtd"><svg t="1541164318797" class="icon" style="" viewBox="0 0 1024 1024" version="1.1" xmlns="http://www.w3.org/2000/svg" p-id="5609" xmlns:xlink="http://www.w3.org/1999/xlink" width="32" height="32"><defs><style type="text/css"></style></defs><path d="M465.3056 808.42752c13.35296 13.35296 26.70592 30.04416 33.36192 36.72064 3.33824 3.31776 6.67648 6.656 6.67648 9.99424l3.33824 3.33824s3.31776 0 3.31776-3.33824l43.35616-43.37664h350.28992l-153.43616-250.18368h-23.36768c-10.01472 13.35296-16.67072 26.70592-26.70592 40.01792h33.3824v3.35872l93.3888 166.78912H545.36192c-9.99424 13.33248-20.00896 20.02944-23.3472 23.3472-3.33824 3.35872-6.67648 6.69696-10.01472 6.69696-3.31776 0-6.656-3.33824-9.99424-6.69696l-23.3472-23.3472H188.416l3.33824-6.63552 76.71808-163.49184h33.36192l-30.02368-40.01792h-23.3472L118.35392 808.42752H465.3056z m0 0" fill="" p-id="5610"></path><path d="M508.68224 161.25952c-133.44768 0-243.54816 106.76224-243.54816 236.8512 0 136.76544 203.50976 326.92224 243.54816 326.92224 46.67392 0 243.52768-193.47456 243.52768-326.92224 0-130.08896-106.74176-236.8512-243.52768-236.8512zM512 681.65632h-3.31776c-43.37664-23.3472-203.50976-173.4656-203.50976-283.5456 0-110.10048 93.40928-196.8128 203.50976-196.8128 110.08 0 203.48928 90.07104 203.48928 196.8128 3.31776 110.08-160.1536 263.53664-200.17152 283.5456z m0 0" fill="" p-id="5611"></path><path d="M508.68224 291.38944c-50.05312 0-93.42976 40.01792-93.42976 93.40928 0 50.03264 40.0384 93.40928 93.42976 93.40928 50.01216 0 93.40928-40.01792 93.40928-93.40928-0.02048-50.05312-40.05888-93.40928-93.40928-93.40928z m0 150.1184c-30.02368 0-56.7296-23.36768-56.7296-56.7296 0-30.02368 23.36768-56.70912 56.7296-56.70912 30.0032 0 56.70912 23.3472 56.70912 56.70912-0.02048 30.02368-23.36768 56.7296-56.70912 56.7296z m0 0" fill="" p-id="5612"></path></svg>